<svg width="41" height="40" viewBox="0 0 41 40" fill="none" xmlns="http://www.w3.org/2000/svg">
<path d="M21.75 18.75H28V21.25H21.75V27.5H19.25V21.25H13V18.75H19.25V12.5H21.75V18.75ZM20.5 2.5C22.1146 2.5 23.6641 2.70833 25.1484 3.125C26.6328 3.54167 28.026 4.1276 29.3281 4.88281C30.6302 5.63802 31.8086 6.54948 32.8633 7.61719C33.918 8.6849 34.8294 9.86328 35.5977 11.1523C36.3659 12.4414 36.9583 13.8346 37.375 15.332C37.7917 16.8294 38 18.3854 38 20C38 21.6146 37.7917 23.1641 37.375 24.6484C36.9583 26.1328 36.3724 27.526 35.6172 28.8281C34.862 30.1302 33.9505 31.3086 32.8828 32.3633C31.8151 33.418 30.6367 34.3294 29.3477 35.0977C28.0586 35.8659 26.6654 36.4583 25.168 36.875C23.6706 37.2917 22.1146 37.5 20.5 37.5C18.8854 37.5 17.3359 37.2917 15.8516 36.875C14.3672 36.4583 12.974 35.8724 11.6719 35.1172C10.3698 34.362 9.19141 33.4505 8.13672 32.3828C7.08203 31.3151 6.17057 30.1367 5.40234 28.8477C4.63411 27.5586 4.04167 26.1654 3.625 24.668C3.20833 23.1706 3 21.6146 3 20C3 18.3854 3.20833 16.8359 3.625 15.3516C4.04167 13.8672 4.6276 12.474 5.38281 11.1719C6.13802 9.86979 7.04948 8.69141 8.11719 7.63672C9.1849 6.58203 10.3633 5.67057 11.6523 4.90234C12.9414 4.13411 14.3346 3.54167 15.832 3.125C17.3294 2.70833 18.8854 2.5 20.5 2.5ZM20.5 35C21.8802 35 23.2083 34.8242 24.4844 34.4727C25.7604 34.1211 26.9518 33.6133 28.0586 32.9492C29.1654 32.2852 30.181 31.5039 31.1055 30.6055C32.0299 29.707 32.8112 28.6979 33.4492 27.5781C34.0872 26.4583 34.5885 25.2604 34.9531 23.9844C35.3177 22.7083 35.5 21.3802 35.5 20C35.5 18.6198 35.3242 17.2917 34.9727 16.0156C34.6211 14.7396 34.1133 13.5482 33.4492 12.4414C32.7852 11.3346 32.0039 10.319 31.1055 9.39453C30.207 8.47005 29.1979 7.6888 28.0781 7.05078C26.9583 6.41276 25.7604 5.91146 24.4844 5.54688C23.2083 5.18229 21.8802 5 20.5 5C19.1198 5 17.7917 5.17578 16.5156 5.52734C15.2396 5.87891 14.0482 6.38672 12.9414 7.05078C11.8346 7.71484 10.819 8.49609 9.89453 9.39453C8.97005 10.293 8.1888 11.3021 7.55078 12.4219C6.91276 13.5417 6.41146 14.7396 6.04688 16.0156C5.68229 17.2917 5.5 18.6198 5.5 20C5.5 21.3802 5.67578 22.7083 6.02734 23.9844C6.37891 25.2604 6.88672 26.4518 7.55078 27.5586C8.21484 28.6654 8.99609 29.681 9.89453 30.6055C10.793 31.5299 11.8021 32.3112 12.9219 32.9492C14.0417 33.5872 15.2396 34.0885 16.5156 34.4531C17.7917 34.8177 19.1198 35 20.5 35Z" fill="#A7B6FF"/>
</svg>
