<svg width="30" height="30" viewBox="0 0 30 30" fill="none" xmlns="http://www.w3.org/2000/svg">
<rect width="30" height="30" rx="12" fill="#2F3555"/>
<g clip-path="url(#clip0_0_34)">
<path d="M10.5469 22.0317H9.60937C9.42289 22.0317 9.24405 21.9577 9.11219 21.8258C8.98033 21.6939 8.90625 21.5151 8.90625 21.3286V17.1099C8.90625 16.9234 8.98033 16.7445 9.11219 16.6127C9.24405 16.4808 9.42289 16.4067 9.60937 16.4067H10.5469C10.7334 16.4067 10.9122 16.4808 11.0441 16.6127C11.1759 16.7445 11.25 16.9234 11.25 17.1099V21.3286C11.25 21.5151 11.1759 21.6939 11.0441 21.8258C10.9122 21.9577 10.7334 22.0317 10.5469 22.0317Z" fill="white"/>
<path d="M17.1094 22.0308H16.1719C15.9854 22.0308 15.8066 21.9567 15.6747 21.8248C15.5428 21.693 15.4688 21.5141 15.4688 21.3276V14.2964C15.4688 14.1099 15.5428 13.9311 15.6747 13.7992C15.8066 13.6673 15.9854 13.5933 16.1719 13.5933H17.1094C17.2959 13.5933 17.4747 13.6673 17.6066 13.7992C17.7384 13.9311 17.8125 14.1099 17.8125 14.2964V21.3276C17.8125 21.5141 17.7384 21.693 17.6066 21.8248C17.4747 21.9567 17.2959 22.0308 17.1094 22.0308Z" fill="white"/>
<path d="M20.3906 22.0312H19.4531C19.2666 22.0312 19.0878 21.9572 18.9559 21.8253C18.8241 21.6934 18.75 21.5146 18.75 21.3281V11.0156C18.75 10.8291 18.8241 10.6503 18.9559 10.5184C19.0878 10.3866 19.2666 10.3125 19.4531 10.3125H20.3906C20.5771 10.3125 20.7559 10.3866 20.8878 10.5184C21.0197 10.6503 21.0937 10.8291 21.0937 11.0156V21.3281C21.0937 21.5146 21.0197 21.6934 20.8878 21.8253C20.7559 21.9572 20.5771 22.0312 20.3906 22.0312Z" fill="white"/>
<path d="M13.8281 22.031H12.8906C12.7041 22.031 12.5253 21.9569 12.3934 21.8251C12.2616 21.6932 12.1875 21.5144 12.1875 21.3279V8.67163C12.1875 8.48515 12.2616 8.30631 12.3934 8.17445C12.5253 8.04258 12.7041 7.96851 12.8906 7.96851H13.8281C14.0146 7.96851 14.1934 8.04258 14.3253 8.17445C14.4572 8.30631 14.5312 8.48515 14.5312 8.67163V21.3279C14.5312 21.5144 14.4572 21.6932 14.3253 21.8251C14.1934 21.9569 14.0146 22.031 13.8281 22.031Z" fill="white"/>
</g>
<defs>
<clipPath id="clip0_0_34">
<rect width="15" height="15" fill="white" transform="translate(7.5 7.5)"/>
</clipPath>
</defs>
</svg>
