<svg width="15" height="16" viewBox="0 0 15 16" fill="none" xmlns="http://www.w3.org/2000/svg">
<path d="M7.50006 1.90601C4.14 1.90601 1.40631 4.6397 1.40631 7.99975C1.40631 11.3598 4.14 14.0935 7.50006 14.0935C10.8601 14.0935 13.5938 11.3598 13.5938 7.99975C13.5938 4.6397 10.8601 1.90601 7.50006 1.90601ZM10.6714 5.95747L6.73395 10.645C6.69076 10.6964 6.63701 10.738 6.57635 10.7668C6.5157 10.7957 6.44955 10.8112 6.38238 10.8123H6.37447C6.30877 10.8122 6.24381 10.7984 6.1838 10.7716C6.12379 10.7449 6.07007 10.7058 6.02613 10.657L4.33863 8.78198C4.29578 8.73653 4.26244 8.68296 4.24058 8.62444C4.21872 8.56592 4.20878 8.50361 4.21134 8.44119C4.2139 8.37877 4.22892 8.3175 4.2555 8.26096C4.28208 8.20443 4.3197 8.15377 4.36614 8.11198C4.41257 8.07019 4.4669 8.03811 4.52591 8.01761C4.58493 7.99712 4.64744 7.98862 4.70979 7.99263C4.77213 7.99664 4.83304 8.01308 4.88895 8.04096C4.94485 8.06885 4.99461 8.10763 5.03531 8.15503L6.36217 9.62925L9.95367 5.35454C10.0342 5.2614 10.1482 5.2037 10.271 5.19392C10.3937 5.18414 10.5154 5.22306 10.6097 5.30226C10.704 5.38147 10.7633 5.49461 10.7749 5.61721C10.7864 5.73981 10.7493 5.86204 10.6714 5.95747Z" fill="#01B574"/>
</svg>
