<svg width="23" height="20" viewBox="0 0 23 20" fill="none" xmlns="http://www.w3.org/2000/svg">
<path d="M2.09091 0C0.930454 0 0 0.936842 0 2.10526V14.7368C0 15.2952 0.220292 15.8307 0.612413 16.2255C1.00453 16.6203 1.53637 16.8421 2.09091 16.8421H13.0682C12.7231 16.0083 12.5455 15.1139 12.5455 14.2105C12.5455 12.3959 13.2614 10.6556 14.5358 9.37243C15.8102 8.08928 17.5386 7.36842 19.3409 7.36842C19.8692 7.36999 20.3955 7.43358 20.9091 7.5579V2.10526C20.9091 1.54691 20.6888 1.01143 20.2967 0.616617C19.9046 0.221804 19.3727 0 18.8182 0H2.09091ZM2.09091 2.10526L10.4545 7.36842L18.8182 2.10526V4.21053L10.4545 9.47368L2.09091 4.21053V2.10526ZM18.8182 8.42105L16.4659 10.7895L18.8182 13.1579V11.5789C19.5114 11.5789 20.1761 11.8562 20.6663 12.3497C21.1565 12.8432 21.4318 13.5126 21.4318 14.2105C21.4318 14.6316 21.3377 15.0316 21.16 15.3895L22.2995 16.5368C22.7386 15.8737 23 15.0737 23 14.2105C23 11.8842 21.1286 10 18.8182 10V8.42105ZM15.3368 11.8842C14.8977 12.5474 14.6364 13.3474 14.6364 14.2105C14.6364 16.5368 16.5077 18.4211 18.8182 18.4211V20L21.1705 17.6316L18.8182 15.2632V16.8421C18.125 16.8421 17.4602 16.5649 16.9701 16.0713C16.4799 15.5778 16.2045 14.9085 16.2045 14.2105C16.2045 13.7895 16.2986 13.3895 16.4764 13.0316L15.3368 11.8842Z" fill="#13BF69"/>
</svg>
