<svg width="41" height="40" viewBox="0 0 41 40" fill="none" xmlns="http://www.w3.org/2000/svg">
<path d="M20.5 40C31.5457 40 40.5 31.0457 40.5 20C40.5 8.95431 31.5457 0 20.5 0C9.45431 0 0.5 8.95431 0.5 20C0.5 31.0457 9.45431 40 20.5 40Z" fill="url(#paint0_linear_0_192)"/>
<path d="M27.9482 26.1166L28.8366 20.4716H23.2789V16.81C23.2789 15.2653 24.0539 13.7587 26.5432 13.7587H29.0714V8.95286C29.0714 8.95286 26.7779 8.57144 24.5862 8.57144C20.0069 8.57144 17.0167 11.2756 17.0167 16.1692V20.4716H11.9286V26.1166H17.0167V39.7636C18.0382 39.92 19.0832 40 20.1477 40C21.2123 40 22.2574 39.92 23.2789 39.7636V26.1166H27.9482Z" fill="white"/>
<defs>
<linearGradient id="paint0_linear_0_192" x1="20.5" y1="0" x2="20.5" y2="39.8814" gradientUnits="userSpaceOnUse">
<stop stop-color="#18ACFE"/>
<stop offset="1" stop-color="#0163E0"/>
</linearGradient>
</defs>
</svg>
