<svg width="41" height="40" viewBox="0 0 41 40" fill="none" xmlns="http://www.w3.org/2000/svg">
<g clip-path="url(#clip0_0_198)">
<path d="M20.5 40C31.5457 40 40.5 31.0457 40.5 20C40.5 8.9543 31.5457 0 20.5 0C9.4543 0 0.5 8.9543 0.5 20C0.5 31.0457 9.4543 40 20.5 40Z" fill="url(#paint0_linear_0_198)"/>
<path d="M20.5 10C17.7852 10 17.4453 10.0117 16.3789 10.0586C15.3125 10.1094 14.5898 10.2773 13.9531 10.5234C13.2969 10.7773 12.7383 11.1211 12.1797 11.6758C11.6211 12.2305 11.2812 12.7891 11.0273 13.4492C10.7812 14.0859 10.6133 14.8125 10.5625 15.875C10.5117 16.9414 10.5039 17.2812 10.5039 19.9961C10.5039 22.7109 10.5156 23.0508 10.5625 24.1172C10.6133 25.1797 10.7812 25.9062 11.0273 26.543C11.2812 27.1992 11.625 27.7578 12.1797 28.3164C12.7344 28.8711 13.293 29.2148 13.9531 29.4688C14.5898 29.7148 15.3164 29.8828 16.3789 29.9336C17.4453 29.9844 17.7852 29.9922 20.5 29.9922C23.2148 29.9922 23.5547 29.9805 24.6211 29.9336C25.6836 29.8828 26.4102 29.7148 27.0469 29.4688C27.7031 29.2148 28.2617 28.8711 28.8203 28.3164C29.375 27.7617 29.7188 27.2031 29.9727 26.543C30.2188 25.9062 30.3867 25.1797 30.4375 24.1172C30.4883 23.0508 30.4961 22.7109 30.4961 19.9961C30.4961 17.2812 30.4844 16.9414 30.4375 15.875C30.3867 14.8125 30.2188 14.0859 29.9727 13.4492C29.7188 12.793 29.375 12.2344 28.8203 11.6758C28.2656 11.1211 27.707 10.7773 27.0469 10.5234C26.4102 10.2773 25.6836 10.1094 24.6211 10.0586C23.5547 10.0117 23.2148 10 20.5 10ZM20.5 11.8008C23.168 11.8008 23.4883 11.8125 24.543 11.8594C25.5195 11.9063 26.0469 12.0664 26.3984 12.207C26.8672 12.3867 27.1992 12.6055 27.5508 12.9531C27.8984 13.3047 28.1172 13.6367 28.2969 14.1055C28.4336 14.457 28.5977 14.9844 28.6406 15.9609C28.6875 17.0156 28.6992 17.332 28.6992 20.0039C28.6992 22.6758 28.6875 22.9922 28.6367 24.0469C28.5859 25.0234 28.4219 25.5508 28.2852 25.9023C28.0977 26.3711 27.8867 26.7031 27.5352 27.0547C27.1875 27.4023 26.8477 27.6211 26.3867 27.8008C26.0352 27.9375 25.5 28.1016 24.5234 28.1445C23.4609 28.1914 23.1484 28.2031 20.4727 28.2031C17.7969 28.2031 17.4844 28.1914 16.4219 28.1406C15.4453 28.0898 14.9102 27.9258 14.5586 27.7891C14.0859 27.6016 13.7578 27.3906 13.4102 27.0391C13.0586 26.6914 12.8359 26.3516 12.6602 25.8906C12.5234 25.5391 12.3594 25.0039 12.3086 24.0273C12.2695 22.9766 12.2578 22.6523 12.2578 19.9922C12.2578 17.3281 12.2695 17.0039 12.3086 15.9414C12.3594 14.9648 12.5195 14.4297 12.6602 14.0781C12.8359 13.6016 13.0586 13.2773 13.4102 12.9258C13.7578 12.5781 14.0859 12.3516 14.5586 12.1758C14.9102 12.0391 15.4336 11.875 16.4102 11.8242C17.4727 11.7852 17.7852 11.7734 20.4609 11.7734L20.5 11.8008ZM20.5 14.8633C17.6641 14.8633 15.3633 17.1641 15.3633 20C15.3633 22.8359 17.6641 25.1367 20.5 25.1367C23.3359 25.1367 25.6367 22.8359 25.6367 20C25.6367 17.1641 23.3359 14.8633 20.5 14.8633ZM20.5 23.332C18.6602 23.332 17.168 21.8398 17.168 20C17.168 18.1602 18.6602 16.668 20.5 16.668C22.3398 16.668 23.832 18.1602 23.832 20C23.832 21.8398 22.3398 23.332 20.5 23.332ZM27.0391 14.6641C27.0391 15.3281 26.5 15.8633 25.8398 15.8633C25.1758 15.8633 24.6406 15.3242 24.6406 14.6641C24.6406 14.0039 25.1797 13.4648 25.8398 13.4648C26.5 13.4609 27.0391 14 27.0391 14.6641Z" fill="white"/>
</g>
<defs>
<linearGradient id="paint0_linear_0_198" x1="0.5" y1="0" x2="40.5" y2="40" gradientUnits="userSpaceOnUse">
<stop stop-color="#FD6585"/>
<stop offset="1" stop-color="#0D25B9"/>
</linearGradient>
<clipPath id="clip0_0_198">
<rect width="40" height="40" fill="white" transform="translate(0.5)"/>
</clipPath>
</defs>
</svg>
