<svg width="30" height="30" viewBox="0 0 30 30" fill="none" xmlns="http://www.w3.org/2000/svg">
<rect width="30" height="30" rx="12" fill="#2F3555"/>
<path d="M21.2567 11.0314C21.2229 10.9657 21.1741 10.909 21.1143 10.8657C21.0545 10.8225 20.9853 10.794 20.9123 10.7826C20.8394 10.7712 20.7648 10.7771 20.6946 10.8C20.6244 10.8229 20.5607 10.862 20.5084 10.9142L18.7084 12.7153C18.6201 12.8024 18.501 12.8512 18.3769 12.8512C18.2529 12.8512 18.1338 12.8024 18.0455 12.7153L17.2673 11.936C17.2238 11.8925 17.1893 11.8408 17.1657 11.784C17.1421 11.7271 17.13 11.6661 17.13 11.6046C17.13 11.543 17.1421 11.482 17.1657 11.4251C17.1893 11.3683 17.2238 11.3166 17.2673 11.2731L19.0597 9.48038C19.1134 9.42666 19.1533 9.36068 19.1759 9.28812C19.1984 9.21557 19.203 9.13861 19.1893 9.06389C19.1755 8.98917 19.1437 8.91892 19.0968 8.85918C19.0498 8.79945 18.989 8.75203 18.9197 8.72101C17.5659 8.11573 15.876 8.43155 14.8105 9.48917C13.9052 10.388 13.6354 11.7925 14.0707 13.3426C14.0942 13.4252 14.0944 13.5128 14.0711 13.5955C14.0479 13.6783 14.0023 13.753 13.9392 13.8113L9.06187 18.2659C8.87186 18.4365 8.7186 18.644 8.61143 18.8758C8.50427 19.1076 8.44544 19.3588 8.43855 19.6141C8.43166 19.8693 8.47684 20.1233 8.57134 20.3605C8.66584 20.5978 8.80768 20.8132 8.98821 20.9938C9.16873 21.1745 9.38415 21.3164 9.62134 21.411C9.85852 21.5056 10.1125 21.5509 10.3678 21.5441C10.623 21.5373 10.8742 21.4786 11.1061 21.3716C11.3379 21.2645 11.5455 21.1113 11.7162 20.9214L16.2185 16.0332C16.276 15.971 16.3495 15.9256 16.4309 15.902C16.5123 15.8784 16.5986 15.8775 16.6805 15.8993C17.1218 16.0202 17.577 16.083 18.0346 16.0859C19.0131 16.0859 19.8718 15.7692 20.4912 15.159C21.6381 14.029 21.813 12.1124 21.2567 11.0314ZM10.4151 20.6006C10.2221 20.6217 10.0274 20.5823 9.85777 20.488C9.68814 20.3937 9.55196 20.249 9.46803 20.074C9.38411 19.899 9.35657 19.7022 9.38922 19.5109C9.42188 19.3196 9.51311 19.1431 9.65033 19.0058C9.78755 18.8686 9.964 18.7773 10.1553 18.7445C10.3466 18.7118 10.5434 18.7393 10.7184 18.8232C10.8935 18.907 11.0382 19.0431 11.1326 19.2128C11.2269 19.3824 11.2664 19.5771 11.2454 19.77C11.2223 19.9823 11.1274 20.1804 10.9764 20.3314C10.8254 20.4825 10.6274 20.5774 10.4151 20.6006Z" fill="white"/>
</svg>
