<svg width="21" height="22" viewBox="0 0 21 22" fill="none" xmlns="http://www.w3.org/2000/svg">
<path fill-rule="evenodd" clip-rule="evenodd" d="M12.752 0.914C12.1917 1.68512 11.8519 2.59423 11.7691 3.5438C11.6863 4.49337 11.8635 5.44758 12.2818 6.30406C12.7001 7.16054 13.3438 7.88697 14.1436 8.40543C14.9434 8.92389 15.8693 9.21482 16.822 9.247V9.258C16.837 9.456 16.852 9.659 16.872 9.855C17.109 12.102 17.649 13.645 18.168 14.658C18.513 15.333 18.852 15.781 19.092 16.052C19.1973 16.1715 19.3109 16.2834 19.432 16.387L19.442 16.393C19.5703 16.4861 19.6658 16.6175 19.7148 16.7683C19.7638 16.9191 19.7637 17.0815 19.7146 17.2323C19.6655 17.383 19.5699 17.5143 19.4415 17.6074C19.3131 17.7004 19.1585 17.7503 19 17.75H0.999968C0.84177 17.7498 0.687683 17.6996 0.55974 17.6066C0.431797 17.5135 0.336552 17.3824 0.287625 17.232C0.238698 17.0815 0.238595 16.9195 0.287331 16.769C0.336066 16.6184 0.431144 16.4872 0.558968 16.394L0.566968 16.387L0.630968 16.333C0.690968 16.279 0.787968 16.188 0.907968 16.052C1.14797 15.782 1.48697 15.334 1.83197 14.659C2.52197 13.31 3.24997 11.03 3.24997 7.4C3.24997 5.519 3.94997 3.706 5.20997 2.362C6.47197 1.016 8.19397 0.25 9.99997 0.25C10.3826 0.25 10.7603 0.283667 11.133 0.351C11.371 0.394 12.151 0.637 12.752 0.914Z" fill="white"/>
<path fill-rule="evenodd" clip-rule="evenodd" d="M13.2499 4C13.2499 3.00544 13.645 2.05161 14.3483 1.34835C15.0515 0.645088 16.0054 0.25 16.9999 0.25C17.9945 0.25 18.9483 0.645088 19.6516 1.34835C20.3548 2.05161 20.7499 3.00544 20.7499 4C20.7499 4.99456 20.3548 5.94839 19.6516 6.65165C18.9483 7.35491 17.9945 7.75 16.9999 7.75C16.0054 7.75 15.0515 7.35491 14.3483 6.65165C13.645 5.94839 13.2499 4.99456 13.2499 4ZM7.89391 19.351C7.97914 19.3016 8.07326 19.2695 8.1709 19.2565C8.26853 19.2435 8.36778 19.2498 8.46296 19.2752C8.55814 19.3005 8.6474 19.3444 8.72563 19.4042C8.80386 19.4641 8.86954 19.5388 8.91891 19.624C9.02883 19.8133 9.18653 19.9704 9.37624 20.0796C9.56595 20.1889 9.78101 20.2464 9.99991 20.2464C10.2188 20.2464 10.4339 20.1889 10.6236 20.0796C10.8133 19.9704 10.971 19.8133 11.0809 19.624C11.1304 19.5388 11.1961 19.4641 11.2744 19.4043C11.3527 19.3445 11.442 19.3007 11.5372 19.2754C11.6325 19.2501 11.7317 19.2438 11.8294 19.2568C11.9271 19.2699 12.0212 19.3021 12.1064 19.3515C12.1916 19.4009 12.2663 19.4667 12.3261 19.545C12.3859 19.6233 12.4297 19.7126 12.4551 19.8078C12.4804 19.903 12.4867 20.0023 12.4736 20.1C12.4605 20.1976 12.4284 20.2918 12.3789 20.377C12.1372 20.7938 11.7902 21.1399 11.3727 21.3804C10.9552 21.6209 10.4818 21.7476 9.99991 21.7476C9.51806 21.7476 9.04466 21.6209 8.62714 21.3804C8.20961 21.1399 7.86262 20.7938 7.62091 20.377C7.57137 20.2917 7.53914 20.1975 7.52605 20.0998C7.51296 20.002 7.51927 19.9027 7.54463 19.8074C7.56998 19.7121 7.61389 19.6227 7.67382 19.5444C7.73376 19.4661 7.80855 19.4004 7.89391 19.351Z" fill="#FF6200"/>
</svg>
