<svg width="41" height="40" viewBox="0 0 41 40" fill="none" xmlns="http://www.w3.org/2000/svg">
<rect x="0.5" width="40" height="40" rx="20" fill="black"/>
<path d="M15.1931 22.9174C15.3133 21.922 15.7215 21.3648 16.4907 20.7936C17.5914 20.0199 18.9663 20.4575 18.9663 20.4575V17.8613C19.3006 17.8527 19.635 17.8725 19.9655 17.9204V21.2616C19.9655 21.2616 18.591 20.824 17.4904 21.598C16.7216 22.1689 16.3125 22.7266 16.1927 23.7219C16.189 24.2624 16.2904 24.9688 16.7575 25.5797C16.642 25.5204 16.5243 25.453 16.4044 25.3773C15.3755 24.6863 15.1881 23.6499 15.1931 22.9174ZM25.6425 13.0607C24.8853 12.2311 24.599 11.3934 24.4955 10.8049H25.448C25.448 10.8049 25.258 12.3479 26.6421 13.8652L26.6613 13.8856C26.2883 13.651 25.9462 13.374 25.6425 13.0607ZM30.2308 15.413V18.6869C30.2308 18.6869 29.0154 18.6394 28.1159 18.4105C26.8599 18.0904 26.0527 17.5996 26.0527 17.5996C26.0527 17.5996 25.4951 17.2496 25.45 17.2252V23.9859C25.45 24.3624 25.3469 25.3024 25.0326 26.0865C24.6223 27.1123 23.9892 27.7855 23.8727 27.9231C23.8727 27.9231 23.1026 28.8332 21.744 29.4461C20.5194 29.999 19.4442 29.985 19.1228 29.999C19.1228 29.999 17.2642 30.0726 15.5917 28.9856C15.23 28.746 14.8924 28.4747 14.5833 28.1751L14.5916 28.1811C16.2645 29.268 18.1227 29.1944 18.1227 29.1944C18.4446 29.1804 19.5197 29.1944 20.744 28.6416C22.1013 28.0287 22.8726 27.1187 22.8726 27.1187C22.9879 26.981 23.624 26.3077 24.0326 25.2817C24.346 24.498 24.45 23.5574 24.45 23.181V16.4211C24.495 16.4459 25.0523 16.7959 25.0523 16.7959C25.0523 16.7959 25.8599 17.2872 27.1159 17.6068C28.0157 17.8357 29.2308 17.8833 29.2308 17.8833V15.3178C29.6465 15.411 30.0009 15.4362 30.2308 15.413Z" fill="#EE1D52"/>
<path d="M29.2315 15.3178V17.8824C29.2315 17.8824 28.0164 17.8348 27.1166 17.6061C25.8606 17.286 25.053 16.7951 25.053 16.7951C25.053 16.7951 24.4957 16.4451 24.4506 16.4203V23.1818C24.4506 23.5583 24.3476 24.4987 24.0333 25.2824C23.623 26.3086 22.9898 26.9818 22.8733 27.1194C22.8733 27.1194 22.1029 28.0295 20.7447 28.6424C19.5204 29.1953 18.4453 29.1813 18.1234 29.1953C18.1234 29.1953 16.2652 29.2689 14.5923 28.182L14.584 28.176C14.4074 28.0049 14.2411 27.8243 14.086 27.6351C13.5522 26.9842 13.225 26.2145 13.1427 25.9949V25.9921C13.0104 25.6105 12.7324 24.694 12.7704 23.8063C12.8376 22.2401 13.3886 21.2788 13.5342 21.038C13.92 20.3813 14.4218 19.7937 15.0172 19.3014C15.5427 18.8766 16.1382 18.5386 16.7794 18.3013C17.4727 18.0227 18.2147 17.8733 18.9663 17.8613V20.4575C18.9663 20.4575 17.5917 20.0215 16.4914 20.7936C15.7222 21.3648 15.314 21.922 15.1938 22.9174C15.1888 23.6499 15.3763 24.686 16.4044 25.3773C16.5243 25.453 16.642 25.5204 16.7575 25.5797C16.937 25.8131 17.1555 26.017 17.4043 26.1821C18.4085 26.8178 19.25 26.8622 20.326 26.4493C21.0435 26.1733 21.5836 25.5513 21.834 24.862C21.9914 24.4316 21.9893 23.9983 21.9893 23.5503V10.8049H24.4936C24.5972 11.3934 24.8835 12.2311 25.6406 13.0607C25.9443 13.374 26.2865 13.651 26.6595 13.8856C26.7697 13.9996 27.3332 14.5633 28.0565 14.9093C28.4305 15.0882 28.8248 15.2253 29.2315 15.3178Z" fill="white"/>
<path d="M12.1456 25.1975V25.1995L12.2078 25.368C12.2006 25.3483 12.1776 25.2887 12.1456 25.1975Z" fill="#69C9D0"/>
<path d="M16.7794 18.3013C16.1382 18.5386 15.5427 18.8766 15.0172 19.3014C14.4216 19.7948 13.9197 20.3836 13.5343 21.0415C13.3887 21.2816 12.8377 22.2437 12.7705 23.8098C12.7325 24.6975 13.0105 25.614 13.1428 25.9957V25.9984C13.2263 26.2161 13.5523 26.9857 14.0861 27.6387C14.2412 27.8279 14.4075 28.0085 14.5841 28.1795C14.0182 27.8043 13.5135 27.3509 13.0865 26.8337C12.5572 26.1885 12.2308 25.4268 12.1457 25.202C12.1456 25.2004 12.1455 25.199 12.1456 25.1975L12.1457 25.1944C12.013 24.8131 11.7341 23.8962 11.773 23.0074C11.8402 21.4412 12.3911 20.4799 12.5368 20.2391C12.922 19.581 13.4236 18.9921 14.0194 18.4989C14.5447 18.0739 15.1402 17.7359 15.7816 17.4988C16.1816 17.3397 16.5984 17.2224 17.0246 17.1488C17.6669 17.0413 18.323 17.0319 18.9683 17.1211V17.8612C18.216 17.873 17.4733 18.0224 16.7794 18.3013Z" fill="#69C9D0"/>
<path d="M24.4955 10.8049L21.9909 10.8049V23.5507C21.9909 23.9987 21.9909 24.4307 21.8357 24.8624C21.5827 25.5513 21.0447 26.1733 20.3276 26.4493C19.2512 26.8638 18.4097 26.8178 17.4059 26.1821C17.1567 26.0177 16.9375 25.8149 16.7573 25.582C17.6125 26.0193 18.378 26.0117 19.3263 25.6469C20.043 25.3708 20.5818 24.7487 20.8339 24.0595C20.9917 23.629 20.9896 23.1958 20.9896 22.7481V10H24.4476C24.4476 10 24.4091 10.3169 24.4955 10.8049ZM29.2309 14.6085L29.2308 15.3178C28.8249 15.2251 28.4315 15.088 28.0581 14.9093C27.3348 14.5633 26.7715 13.9997 26.6613 13.8856C26.7892 13.9661 26.9216 14.0393 27.0584 14.1048C27.9379 14.5257 28.8039 14.6513 29.2309 14.6085Z" fill="#69C9D0"/>
</svg>
