<svg width="41" height="40" viewBox="0 0 41 40" fill="none" xmlns="http://www.w3.org/2000/svg">
<path d="M20.4999 0C31.5462 0 40.5 8.95499 40.5 20.0001C40.5 31.0464 31.5462 40 20.4999 40C9.45362 40 0.5 31.0462 0.5 20.0001C0.5 8.95499 9.45376 0 20.4999 0Z" fill="#28B1FF"/>
<path d="M9.25 16.25C11.12 14.7574 13.7788 11.4799 15.8525 11.4799C17.9238 11.4799 18.4325 13.9262 18.7151 16.1449C19.0014 18.3637 19.815 23.2174 20.9101 23.2174C22.0076 23.2174 24.5063 18.9237 24.3639 17.2649C24.2238 15.6061 22.4139 15.8549 21.4189 16.3312C22.3339 13.0138 24.4464 11.2499 27.1476 11.2499C29.8501 11.2499 30.5013 13.1586 30.5013 15.5025C30.5013 19.07 23.2701 30 18.9013 30C16.1988 30 15.5288 26.0175 14.9813 24.0462C14.4325 22.0775 13.3551 16.9112 12.0951 16.5799C11.6063 16.4986 10.2264 17.5949 10.2264 17.5949L9.25 16.25Z" fill="white"/>
</svg>
