<svg width="41" height="40" viewBox="0 0 41 40" fill="none" xmlns="http://www.w3.org/2000/svg">
<g clip-path="url(#clip0_0_203)">
<path d="M20.5 45C34.3071 45 45.5 33.8071 45.5 20C45.5 6.19288 34.3071 -5 20.5 -5C6.69288 -5 -4.5 6.19288 -4.5 20C-4.5 33.8071 6.69288 45 20.5 45Z" fill="#FF0000"/>
<path fill-rule="evenodd" clip-rule="evenodd" d="M29.917 13.6484C30.2496 13.981 30.4893 14.3949 30.6121 14.8489C31.3195 17.6964 31.156 22.1937 30.6259 25.1511C30.503 25.6051 30.2634 26.019 29.9308 26.3516C29.5982 26.6842 29.1843 26.9238 28.7303 27.0467C27.0682 27.5 20.3786 27.5 20.3786 27.5C20.3786 27.5 13.6891 27.5 12.027 27.0467C11.573 26.9238 11.1591 26.6842 10.8265 26.3516C10.4939 26.019 10.2542 25.6051 10.1314 25.1511C9.4198 22.3159 9.61488 17.8159 10.1176 14.8627C10.2405 14.4086 10.4801 13.9947 10.8127 13.6621C11.1453 13.3295 11.5592 13.0899 12.0132 12.967C13.6753 12.5137 20.3649 12.5 20.3649 12.5C20.3649 12.5 27.0545 12.5 28.7166 12.9533C29.1705 13.0762 29.5845 13.3158 29.917 13.6484ZM23.7852 20L18.2358 23.2142V16.7857L23.7852 20Z" fill="white"/>
</g>
<defs>
<clipPath id="clip0_0_203">
<rect x="0.5" width="40" height="40" rx="20" fill="white"/>
</clipPath>
</defs>
</svg>
